<svg width="214" height="54" viewBox="0 0 214 54" fill="none" xmlns="http://www.w3.org/2000/svg">
<g clip-path="url(#clip0_1493_12477)">
<path d="M31.3691 52.5C45.7555 52.5 57.418 40.8375 57.418 26.4512C57.418 12.0648 45.7555 0.402344 31.3691 0.402344C16.9828 0.402344 5.32031 12.0648 5.32031 26.4512C5.32031 40.8375 16.9828 52.5 31.3691 52.5Z" fill="black"/>
<path d="M34.9466 7.90625L36.9357 8.05543C42.5548 8.50297 44.8423 12.2325 45.0909 17.4041L45.1903 19.244V29.7364C45.1903 30.8303 45.1406 32.0238 44.9417 33.0681L44.6931 34.5101C43.6488 40.5768 38.7756 41.6211 33.604 41.6211C25.8466 41.6211 22.4154 39.3336 22.1171 31.5265L22.0176 29.5374V19.4926C22.0176 18.5975 22.0673 17.6527 22.1668 16.7576L22.4154 15.1166C23.3602 8.0057 29.1783 7.90625 34.9466 7.90625ZM20.128 14.1718L22.316 12.5309C22.4652 12.4314 22.6641 12.3319 22.863 12.3319L22.5149 12.9784L19.3324 15.3653C19.5313 14.9177 19.8296 14.5697 20.128 14.1718ZM18.7854 16.509L22.0673 14.0724L21.8684 14.8183C21.8187 14.8183 21.8187 14.868 21.8187 14.868L18.5367 17.3046L18.5865 17.2052C18.5865 17.1057 18.7356 16.6582 18.7854 16.509ZM28.9794 17.056L30.1231 16.2106C30.1728 16.1609 30.9685 16.0615 31.0679 16.0615H31.1176L28.8302 17.7522C28.8302 17.8019 28.7805 17.8019 28.7805 17.8516L28.7307 18.6473L32.1619 16.0615H32.9575L29.3275 18.7964H28.7307L28.681 19.9402V29.2391C28.681 29.3883 28.681 30.4823 28.7307 30.7806C28.8799 34.0129 29.8745 34.2118 32.7089 34.3112C32.9078 34.3112 35.1952 34.3112 35.2947 34.2118L37.4827 32.5708C37.5821 32.5211 37.5324 32.5708 37.5324 32.5708C37.5324 32.6205 37.4329 33.2172 37.3335 33.267L36.2395 34.1123C38.2286 34.1123 38.5767 30.8801 38.5767 29.3385V19.3932L38.4772 17.9511C38.2783 15.5642 36.8362 15.2161 34.6482 15.2161H33.5542H32.51C31.3165 15.2161 29.6756 15.3653 29.1286 16.6085C29.0291 16.7576 28.9794 16.9068 28.9794 17.056ZM18.3378 18.2494L21.6198 15.8128L21.5203 16.4593L18.2384 18.8959L18.1886 18.9456C18.1886 18.8462 18.2881 18.3986 18.3378 18.2494ZM30.3717 18.7964L33.9521 16.0615C34.2504 16.0615 34.5488 16.0615 34.7477 16.1112L31.1176 18.7964H30.3717ZM32.6094 19.0948L32.0127 18.8959L35.5433 16.2604C35.5931 16.2106 35.5931 16.2106 35.6428 16.2106C35.792 16.2106 36.0406 16.3101 36.14 16.4095L32.6094 19.0948ZM33.2559 19.3434L36.7865 16.7079C36.7865 16.7079 36.886 16.7576 36.886 16.8074C36.9357 16.8571 37.0351 16.9565 37.0849 17.1057L33.6537 19.6418C33.5045 19.5423 33.4051 19.4429 33.2559 19.3434ZM28.9297 17.1057C28.9794 17.1057 28.9794 17.056 28.9297 17.056V17.1057ZM17.9897 20.4872L18.0395 19.8407L21.3712 17.3046C21.3712 17.5035 21.3712 17.7522 21.3214 17.9511L17.9897 20.4872ZM33.9521 20.1888L37.3832 17.6527V17.603C37.4329 17.6527 37.4827 17.8019 37.4827 17.8516C37.5324 17.9014 37.5821 18.1003 37.5324 18.1003L34.151 20.6363C34.1012 20.4872 33.9521 20.1888 33.9521 20.1888ZM17.8903 21.7801C17.8903 21.5811 17.94 21.2828 17.94 21.2828L21.2717 18.7964V18.8959C21.2717 19.0451 21.2717 19.1445 21.222 19.3932L17.8903 21.8795V21.7801ZM34.3002 21.3325L37.6319 18.7964C37.6816 18.8959 37.6816 19.244 37.6816 19.3434L34.3002 21.8795V21.3325ZM34.3996 22.6254L37.7313 20.1391V20.0893C37.781 20.2385 37.781 20.3877 37.781 20.5369V20.6861L34.3996 23.1724C34.3499 23.0232 34.3996 22.8243 34.3996 22.6751V22.6254ZM17.8406 23.0232C17.8406 22.9238 17.7908 22.6751 17.8903 22.6254L21.222 20.1391V20.7358L17.8406 23.2719V23.0232ZM34.3996 24.5648V23.968L37.7313 21.4817H37.781V22.0287L34.3996 24.5648ZM17.8406 24.6145V24.0178L21.1723 21.5811C21.1723 21.5811 21.1723 21.5314 21.222 21.5314V22.1281L17.8406 24.6145ZM34.3996 25.3604L37.781 22.8243V23.3713L34.3996 25.9074V25.3604ZM17.8406 26.0068V25.4101L21.222 22.874V23.4708L17.8406 26.0068ZM34.3996 27.25V26.6533L37.781 24.1669V24.7637L34.3996 27.25ZM17.8406 26.7527L21.222 24.2664V24.8631L17.8406 27.3495V26.7527ZM34.3996 28.6424V28.0456L37.781 25.5096V26.1063L34.3996 28.6424ZM17.8406 28.1451L21.222 25.609V26.2057L17.8406 28.7418V28.1451ZM34.3996 29.3883L37.781 26.9019V27.4986L34.3996 30.0347V29.3883ZM17.8406 30.1342V29.5374L21.222 27.0014V27.5981L17.8406 30.1342ZM34.3996 31.3773V30.7806L37.781 28.2445V28.8413L34.3996 31.3773ZM17.8406 30.8801L21.222 28.3937V28.9904L17.8406 31.4768V30.8801ZM34.3996 32.72V32.173L37.781 29.6369V30.1839C37.781 30.2336 37.7313 30.2336 37.7313 30.2833L34.4493 32.72H34.3996ZM17.8406 32.2724L21.222 29.7364V30.3331L17.8406 32.8691V32.2724ZM34.3996 33.5156L37.7313 31.0293C37.7313 31.3276 37.6816 31.6757 37.6816 31.6757L34.3499 34.162V34.1123C34.3499 33.9631 34.3002 33.6151 34.3996 33.5156ZM17.8406 33.6151L21.222 31.1287V31.079C21.2717 31.2779 21.2717 31.4768 21.2717 31.6757L17.8903 34.2118C17.8903 34.0129 17.8406 33.9134 17.8406 33.7145V33.6151ZM17.94 34.9577L21.3214 32.4216C21.3214 32.4216 21.3214 32.8194 21.3712 32.9686L17.94 35.5047V34.9577ZM18.0395 36.2008L21.3712 33.7145H21.4209C21.4209 33.814 21.4706 34.162 21.4706 34.2615L18.1389 36.7478C18.0892 36.6981 18.0395 36.35 18.0395 36.2008ZM18.1886 37.444L21.5203 34.9577H21.6198L21.6695 35.4052V35.4549L18.2881 37.991L18.1886 37.5435V37.444ZM18.4373 38.6375L21.8187 36.1014L21.9679 36.5987L18.5367 39.1347C18.487 38.9856 18.4373 38.6375 18.4373 38.6375ZM18.7356 39.7812L22.1668 37.1954C22.2165 37.2948 22.316 37.5435 22.316 37.6927L18.8848 40.2287C18.8848 40.2287 18.8848 40.1293 18.8351 40.0795C18.8351 40.0298 18.7356 39.7812 18.7356 39.7812ZM19.1832 40.7757L22.6143 38.2397L22.863 38.6872L19.3821 41.273C19.3324 41.1238 19.1832 40.9249 19.1832 40.7757ZM19.9788 42.1681L19.6805 41.82L23.1613 39.1845C23.2111 39.2342 23.41 39.4828 23.41 39.632L20.0285 42.1681H19.9788ZM20.7247 43.0134L20.3766 42.6653L23.8078 40.0795C23.8575 40.0298 23.9072 40.0298 23.9072 40.0298L24.2056 40.3779L20.7247 43.0134ZM21.222 43.4112L24.7029 40.7757H24.7526L25.1504 41.0244L21.6198 43.6599C21.6198 43.6599 21.4706 43.5604 21.3712 43.5107L21.222 43.4112ZM22.2165 44.008L25.7471 41.3724H25.7969L26.2941 41.5714L22.7635 44.2069L22.7138 44.2566C22.6641 44.2566 22.2662 44.0577 22.2165 44.008ZM33.8526 44.8036L37.6319 42.0189C38.0297 41.9194 38.4772 41.7703 38.875 41.6708L35.0461 44.555C34.9466 44.6047 34.0018 44.8036 33.9023 44.8036H33.8526ZM23.4597 44.5052H23.41L26.9406 41.8697C26.9903 41.82 27.04 41.82 27.04 41.82L27.587 41.9692L24.0067 44.6544C23.8575 44.6544 23.5094 44.555 23.4597 44.5052ZM25.3493 44.9528L24.8023 44.8533L28.3827 42.1681C28.5318 42.1681 28.8799 42.2178 29.0788 42.2178L25.4985 44.9031C25.4488 44.9528 25.4488 44.9528 25.3493 44.9528ZM32.5597 45.0522L31.6646 45.102L35.3444 42.367C35.3444 42.367 35.3941 42.3173 35.4439 42.3173L36.2892 42.2178L32.5597 45.0522ZM26.3439 45.0522L29.9739 42.3173C30.0734 42.3173 30.5706 42.367 30.6701 42.367L27.04 45.102C26.7914 45.102 26.3439 45.0522 26.3439 45.0522ZM30.5209 45.2014H29.8247L33.4548 42.4664C33.5045 42.4167 33.9521 42.4167 34.0515 42.4167H34.2007L30.5209 45.2014ZM28.0346 45.1517L31.6149 42.4664H31.6646C31.6646 42.4167 31.7641 42.4167 31.8635 42.4167C32.0624 42.4167 32.2116 42.4167 32.4105 42.4664L28.7805 45.2014H28.5816C28.3827 45.2014 28.2335 45.2014 28.0346 45.1517Z" fill="white"/>
<path d="M64.6534 31.9451L63 30.2917V21.1534L64.6534 19.5H68.6892L70.3426 21.1534V30.2917L68.6892 31.9451H64.6534ZM65.5779 29.705H67.7647L68.1025 29.3672V22.0779L67.7647 21.7401H65.5779L65.2401 22.0779V29.3672L65.5779 29.705ZM73.1392 31.9451L75.646 19.5H78.7395L81.2463 31.9451H78.9706L78.4194 29.2072H75.9838L75.4326 31.9451H73.1392ZM76.4282 26.967H77.9572L77.1927 23.1624L76.4282 26.967ZM84.0428 31.9451V19.5H86.283V25.2247L88.6475 22.2201V19.5H90.8876V23.0024L89.2698 25.0647L90.8876 27.0737V31.9451H88.6475V27.856L87.8475 26.8782L86.283 28.8516V31.9451H84.0428ZM94.0398 31.9451V19.5H96.4221L98.2711 24.2113L100.12 19.5H102.502V31.9451H100.262V25.2781L99.1601 28.0871H97.3822L96.2799 25.2781V31.9451H94.0398ZM107.308 31.9451L105.655 30.2917V21.1534L107.308 19.5H111.344L112.997 21.1534V30.2917L111.344 31.9451H107.308ZM108.233 29.705H110.419L110.757 29.3672V22.0779L110.419 21.7401H108.233L107.895 22.0779V29.3672L108.233 29.705ZM116.149 31.9451V19.5H118.532L121.127 26.1492V19.5H123.367V31.9451H120.985L118.389 25.2958V31.9451H116.149ZM128.884 31.9451V21.7401H126.52V19.5H133.489V21.7401H131.124V31.9451H128.884ZM141.393 31.9451L143.9 19.5H146.994L149.5 31.9451H147.225L146.674 29.2072H144.238L143.687 31.9451H141.393ZM144.682 26.967H146.211L145.447 23.1624L144.682 26.967ZM154.662 31.9451V21.7401H152.297V19.5H159.266V21.7401H156.902V31.9451H154.662ZM162.418 31.9451V19.5H164.658V24.6025H167.396V19.5H169.637V31.9451H167.396V26.8426H164.658V31.9451H162.418ZM172.789 31.9451V19.5H175.029V29.705H178.513V31.9451H172.789ZM181.666 31.9451V19.5H187.764V21.7401H183.906V24.6025H186.768V26.8426H183.906V29.705H187.764V31.9451H181.666ZM193.28 31.9451V21.7401H190.916V19.5H197.885V21.7401H195.52V31.9451H193.28ZM201.037 31.9451V19.5H203.277V31.9451H201.037ZM208.083 31.9451L206.429 30.2917V21.1534L208.083 19.5H211.994L213.648 21.1534V23.4824H211.408V22.0779L211.07 21.7401H209.007L208.67 22.0779V29.3672L209.007 29.705H211.07L211.408 29.3672V27.9627H213.648V30.2917L211.994 31.9451H208.083Z" fill="black"/>
</g>
<defs>
<clipPath id="clip0_1493_12477">
<rect width="214" height="53" fill="white" transform="translate(0 0.5)"/>
</clipPath>
</defs>
</svg>
